# xmcd
#
# Track frame offsets:
# 150
# 20596
# 39603
# 57522
# 72363
# 89438
# 103718
# 124196
# 141593
# 160438
# 178217
# 189380
# 203387
# 221820
# 237173
#
# Disc length: 3399 seconds
#
#
# Revision: 12
# Processed by: cddbd v1.5.2PL0 Copyright (c) Steve Scherf et al.
# Submitted via: FreeRIP 2.951 
#
DISCID=e50d450f
DTITLE=Ana Carolina - Estampado
DYEAR=2003
DGENRE=MPB
TTITLE0=Hoje Eu Tô Sozinha
TTITLE1=Encostar Na Tua
TTITLE2=2 Bicudos
TTITLE3=Elevador (Livro de Esquecimento)
TTITLE4=Só Fala Em Mim
TTITLE5=É Hora Da Virada
TTITLE6=Uma Louca Tempestade
TTITLE7=Pra Rua Me Levar
TTITLE8=É Mágoa
TTITLE9=Mais Que Isso
TTITLE10=Vox Populi
TTITLE11=Vestido Estampado
TTITLE12=Nua
TTITLE13=Não Fale Desse Jeito
TTITLE14=O Beat Da Beata
EXTD=YEAR: 2003
EXTT0=
EXTT1=
EXTT2=
EXTT3=
EXTT4=
EXTT5=
EXTT6=
EXTT7=
EXTT8=
EXTT9=
EXTT10=
EXTT11=
EXTT12=
EXTT13=
EXTT14=
PLAYORDER=
